<svg xmlns="http://www.w3.org/2000/svg" width="120.874" height="107.345" viewBox="0 0 120.874 107.345">
  <g id="Group_489" data-name="Group 489" transform="translate(-255.953 2.683)">
    <path id="Path_302" data-name="Path 302" d="M-204.428,105.747l.769-1.306a1.872,1.872,0,0,0,1.333.137,2.59,2.59,0,0,0,1.419-1.479,4.552,4.552,0,0,1,5.065-2.783l-.363,1.473.182-.737-.177.737a3,3,0,0,0-3.342,1.968,3.993,3.993,0,0,1-2.359,2.278A3.345,3.345,0,0,1-204.428,105.747Z" transform="translate(550.024 -89.959)" fill="#fff"/>
    <path id="Polygon_5" data-name="Polygon 5" d="M8,0l8,13H0Z" transform="translate(287.596 42.683) rotate(-138)" fill="#073d62"/>
    <path id="Polygon_12" data-name="Polygon 12" d="M8,0l8,13H0Z" transform="matrix(-0.695, -0.719, 0.719, -0.695, 276.882, 32.77)" fill="#2bbdbe"/>
    <path id="Polygon_13" data-name="Polygon 13" d="M8,0l8,13H0Z" transform="translate(265.803 20.806) rotate(-128)" fill="#073d62"/>
    <path id="Polygon_6" data-name="Polygon 6" d="M8,0l8,13H0Z" transform="matrix(-0.755, -0.656, 0.656, -0.755, 298.773, 52.654)" fill="#2bbdbe"/>
    <path id="Polygon_7" data-name="Polygon 7" d="M8,0l8,13H0Z" transform="matrix(-0.848, -0.53, 0.53, -0.848, 313.34, 62.252)" fill="#073d62"/>
    <path id="Polygon_8" data-name="Polygon 8" d="M8,0l8,13H0Z" transform="matrix(-0.914, -0.407, 0.407, -0.914, 327.665, 68.692)" fill="#2bbdbe"/>
    <path id="Polygon_9" data-name="Polygon 9" d="M8,0l8,13H0Z" transform="translate(345.018 71.05) rotate(-172)" fill="#073d62"/>
    <path id="Polygon_10" data-name="Polygon 10" d="M8,0l8,13H0Z" transform="translate(361.329 70.572) rotate(177)" fill="#2bbdbe"/>
    <path id="Polygon_11" data-name="Polygon 11" d="M8,0l8,13H0Z" transform="translate(375.329 69.572) rotate(177)" fill="#073d62"/>
    <path id="Polygon_5-2" data-name="Polygon 5" d="M8,0l8,13H0Z" transform="translate(317.596 17.683) rotate(-138)" fill="#073d62"/>
    <path id="Polygon_6-2" data-name="Polygon 6" d="M8,0l8,13H0Z" transform="matrix(-0.755, -0.656, 0.656, -0.755, 328.773, 27.654)" fill="#2bbdbe"/>
    <path id="Polygon_7-2" data-name="Polygon 7" d="M8,0l8,13H0Z" transform="matrix(-0.848, -0.53, 0.53, -0.848, 343.34, 37.252)" fill="#073d62"/>
    <path id="Polygon_8-2" data-name="Polygon 8" d="M8,0l8,13H0Z" transform="matrix(-0.914, -0.407, 0.407, -0.914, 357.665, 43.692)" fill="#2bbdbe"/>
    <path id="Polygon_9-2" data-name="Polygon 9" d="M8,0l8,13H0Z" transform="translate(375.018 46.05) rotate(-172)" fill="#073d62"/>
    <rect id="Rectangle_223" data-name="Rectangle 223" width="1.326" height="3.853" transform="translate(335.519 41.889) rotate(75.625)" fill="#073d62"/>
    <rect id="Rectangle_225" data-name="Rectangle 225" width="1.326" height="3.853" transform="matrix(0.248, 0.969, -0.969, 0.248, 331.711, 45.604)" fill="#073d62"/>
    <path id="Path_301" data-name="Path 301" d="M-236.814,54.344l-.892-1.738a2.41,2.41,0,0,0,1.067-1.357,3.342,3.342,0,0,0-.635-2.563,5.863,5.863,0,0,1,.455-7.431l1.353,1.409-.676-.7.681.7c-.206.205-1.967,2.092-.158,4.995a5.142,5.142,0,0,1,.856,4.136A4.306,4.306,0,0,1-236.814,54.344Z" transform="translate(584.24 50.317)" fill="#fff"/>
    <rect id="Rectangle_217" data-name="Rectangle 217" width="1.326" height="3.852" transform="translate(316.555 80.128)" fill="#2bbdbe"/>
    <circle id="Ellipse_127" data-name="Ellipse 127" cx="3" cy="3" r="3" transform="translate(268 54)" fill="#fff"/>
    <circle id="Ellipse_128" data-name="Ellipse 128" cx="3" cy="3" r="3" transform="translate(292 10)" fill="#2bbdbe"/>
  </g>
</svg>
