<svg xmlns="http://www.w3.org/2000/svg" width="85.122" height="119.733" viewBox="0 0 85.122 119.733">
  <g id="Group_426" data-name="Group 426" transform="translate(-94.397 -284.44)">
    <g id="Group_423" data-name="Group 423" transform="translate(-43.716 -11.545)">
      <rect id="Rectangle_1799" data-name="Rectangle 1799" width="49.954" height="62.451" transform="translate(173.956 295.985) rotate(9.43)" fill="#2bbdbe"/>
      <path id="Path_15589" data-name="Path 15589" d="M472.589,392.249h-.476l-62.952-6.7L420.041,283.56l63.041,6.724.089.017c3.547.566,5.957,4.4,5.5,8.736l-9.153,85.826c-.442,4.142-3.475,7.386-6.917,7.386Z" transform="translate(-271.047 23.469)" fill="#073d62"/>
      <path id="Path_15591" data-name="Path 15591" d="M502.186,420.02,482.18,447.467l33.775,3.6Z" transform="translate(-322.475 -75.595)" fill="#2bbdbe"/>
      <rect id="Rectangle_1800" data-name="Rectangle 1800" width="39.381" height="6.974" transform="translate(162.201 326.865) rotate(6.09)" fill="#56cad8"/>
      <ellipse id="Ellipse_220" data-name="Ellipse 220" cx="14.564" cy="14.564" rx="14.564" ry="14.564" transform="translate(163.17 349.655)" fill="#fff"/>
    </g>
    <g id="Group_425" data-name="Group 425" transform="translate(-149.685 -257.107) rotate(4)">
      <path id="Path_15619" data-name="Path 15619" d="M315.226,589.6v-1.2c.068-.023.041-.083.044-.128a9.543,9.543,0,0,1,11.572-8.6A9.557,9.557,0,1,1,315.3,590.05.922.922,0,0,0,315.226,589.6Zm12.255,1.618c.228,0,.427,0,.626,0s.406.056.549-.024.152-.324.208-.5a.182.182,0,0,1,.216-.146c.251.01.5,0,.753,0,.185,0,.413-.075.541.035.106.09.1.315.139.481a.123.123,0,0,1,.007.02c.006.113.073.134.174.131.236-.006.474-.011.71,0,.157.008.2-.037.162-.193-.076-.313-.138-.629-.2-.944q-.328-1.565-.654-3.13c-.026-.125-.075-.176-.211-.169-.25.013-.5.008-.753,0a.564.564,0,0,0-.592.4c-.367.907-.748,1.809-1.123,2.713Zm-7.083-1.472-.039,0q-.221-1.213-.442-2.425a.554.554,0,0,0-.532-.524c-.616-.009-1.233,0-1.849,0-.057,0-.127-.01-.134.068s.075.07.125.086c.285.092.575.168.854.283a.661.661,0,0,1,.418.5c.28,1.116.58,2.227.869,3.341.03.114.075.162.2.157.286-.012.574-.014.86,0a.235.235,0,0,0,.264-.182c.513-1.233,1.033-2.464,1.55-3.695l.233-.556c-.391,0-.755,0-1.118,0-.1,0-.112.074-.137.136-.136.338-.268.677-.4,1.016Q320.759,588.844,320.4,589.747Zm4.052.349c-.059.294-.107.569-.172.839-.029.119.02.147.115.178a3.216,3.216,0,0,0,.648.146,2.876,2.876,0,0,0,1.851-.3,1.275,1.275,0,0,0,.029-2.19c-.149-.085-.3-.167-.447-.254a3.662,3.662,0,0,1-.4-.246.294.294,0,0,1,.011-.5.634.634,0,0,1,.255-.106,2.094,2.094,0,0,1,1.224.17c.053-.257.093-.512.161-.759.037-.138,0-.187-.126-.226a3.091,3.091,0,0,0-1.3-.11,1.933,1.933,0,0,0-1.22.568,1.153,1.153,0,0,0,.108,1.754,2.468,2.468,0,0,0,.547.335,1.638,1.638,0,0,1,.44.264.337.337,0,0,1-.062.586,1.182,1.182,0,0,1-.687.118A2.96,2.96,0,0,1,324.45,590.1Zm-1.541,1.124a3.087,3.087,0,0,1,.365,0c.16.019.221-.044.252-.2.253-1.226.513-2.45.77-3.675.037-.175.147-.41.075-.512-.093-.131-.343-.043-.525-.044-.2,0-.451-.087-.581.037s-.1.358-.142.546c-.26,1.231-.519,2.463-.782,3.694-.025.115-.007.157.116.15C322.607,591.213,322.758,591.22,322.909,591.22Z" fill="#073d62"/>
      <path id="Path_15620" data-name="Path 15620" d="M485.209,682.938a2.809,2.809,0,0,1,.143.577c.07.306.124.615.2.921.022.1.007.129-.094.127q-.343-.006-.686,0c-.113,0-.112-.047-.081-.132C484.859,683.941,485.03,683.451,485.209,682.938Z" transform="translate(-155.373 -94.901)" fill="#073d62"/>
    </g>
  </g>
</svg>
